<?xml version="1.0" encoding="UTF-8"?>
<svg xmlns="http://www.w3.org/2000/svg" xmlns:xlink="http://www.w3.org/1999/xlink" width="200px" height="200px" viewBox="0 0 200 200" version="1.1">
<g id="surface1">
<path style=" stroke:none;fill-rule:nonzero;fill:rgb(6.27451%,9.411765%,12.54902%);fill-opacity:1;" d="M 150 137.5 C 148.539062 137.503906 147.125 136.996094 146 136.0625 L 117.75 112.5 L 106.25 112.5 C 78.636719 112.5 56.25 90.113281 56.25 62.5 C 56.25 34.886719 78.636719 12.5 106.25 12.5 L 143.75 12.5 C 168.871094 12.570312 190.042969 31.273438 193.207031 56.195312 C 196.375 81.121094 180.558594 104.523438 156.25 110.875 L 156.25 131.25 C 156.257812 133.691406 154.839844 135.914062 152.625 136.9375 C 151.800781 137.3125 150.90625 137.503906 150 137.5 Z M 106.25 25 C 85.539062 25 68.75 41.789062 68.75 62.5 C 68.75 83.210938 85.539062 100 106.25 100 L 120 100 C 121.460938 99.996094 122.875 100.503906 124 101.4375 L 143.75 117.875 L 143.75 105.75 C 143.71875 102.613281 146.019531 99.9375 149.125 99.5 C 168.269531 96.363281 181.859375 79.144531 180.464844 59.796875 C 179.066406 40.445312 163.144531 25.355469 143.75 25 Z M 106.25 25 "/>
<path style=" stroke:none;fill-rule:nonzero;fill:rgb(6.27451%,9.411765%,12.54902%);fill-opacity:1;" d="M 118.75 56.25 L 131.25 56.25 L 131.25 68.75 L 118.75 68.75 Z M 118.75 56.25 "/>
<path style=" stroke:none;fill-rule:nonzero;fill:rgb(6.27451%,9.411765%,12.54902%);fill-opacity:1;" d="M 87.5 56.25 L 100 56.25 L 100 68.75 L 87.5 68.75 Z M 87.5 56.25 "/>
<path style=" stroke:none;fill-rule:nonzero;fill:rgb(6.27451%,9.411765%,12.54902%);fill-opacity:1;" d="M 150 56.25 L 162.5 56.25 L 162.5 68.75 L 150 68.75 Z M 150 56.25 "/>
<path style=" stroke:none;fill-rule:nonzero;fill:rgb(6.27451%,9.411765%,12.54902%);fill-opacity:1;" d="M 50 187.5 C 49.09375 187.503906 48.199219 187.3125 47.375 186.9375 C 45.160156 185.914062 43.742188 183.691406 43.75 181.25 L 43.75 160.875 C 23.375 155.445312 8.597656 137.820312 6.804688 116.8125 C 5.011719 95.800781 16.589844 75.925781 35.75 67.125 C 37.808594 66.042969 40.296875 66.1875 42.210938 67.507812 C 44.125 68.828125 45.148438 71.101562 44.867188 73.40625 C 44.589844 75.714844 43.050781 77.675781 40.875 78.5 C 25.726562 85.367188 16.914062 101.394531 19.222656 117.867188 C 21.535156 134.335938 34.421875 147.316406 50.875 149.75 C 53.980469 150.1875 56.28125 152.863281 56.25 156 L 56.25 168.125 L 76 151.6875 C 77.089844 150.664062 78.507812 150.066406 80 150 L 93.75 150 C 103.863281 150.019531 113.546875 145.910156 120.5625 138.625 C 122.980469 136.140625 126.953125 136.082031 129.4375 138.5 C 131.921875 140.917969 131.980469 144.890625 129.5625 147.375 C 120.152344 157.039062 107.238281 162.496094 93.75 162.5 L 82.25 162.5 L 54 186.0625 C 52.875 186.996094 51.460938 187.503906 50 187.5 Z M 50 187.5 "/>
</g>
</svg>
